<svg xmlns="http://www.w3.org/2000/svg" viewBox="0 0 512 512">
  <rect width="512" height="512" fill="#131212"/>
  <!-- Sound wave visualization with concentric arcs -->
  <path d="M 80 256 Q 80 160 176 160" fill="none" stroke="#E8E8E8" stroke-width="6" stroke-linecap="round"/>
  <path d="M 80 256 Q 80 352 176 352" fill="none" stroke="#E8E8E8" stroke-width="6" stroke-linecap="round"/>
  <path d="M 120 256 Q 120 190 196 190" fill="none" stroke="#E8E8E8" stroke-width="6" stroke-linecap="round"/>
  <path d="M 120 256 Q 120 322 196 322" fill="none" stroke="#E8E8E8" stroke-width="6" stroke-linecap="round"/>
  <path d="M 160 256 Q 160 220 216 220" fill="none" stroke="#E8E8E8" stroke-width="6" stroke-linecap="round"/>
  <path d="M 160 256 Q 160 292 216 292" fill="none" stroke="#E8E8E8" stroke-width="6" stroke-linecap="round"/>
  <!-- Central T shape from waveforms -->
  <rect x="236" y="176" width="160" height="20" fill="#E8E8E8"/>
  <rect x="316" y="196" width="20" height="120" fill="#E8E8E8"/>
  <!-- Connecting wave on right -->
  <path d="M 360 256 Q 360 192 416 192" fill="none" stroke="#888" stroke-width="4" stroke-linecap="round"/>
  <path d="M 360 256 Q 360 320 416 320" fill="none" stroke="#888" stroke-width="4" stroke-linecap="round"/>
  <path d="M 396 256 Q 396 216 432 216" fill="none" stroke="#555" stroke-width="3" stroke-linecap="round"/>
  <path d="M 396 256 Q 396 296 432 296" fill="none" stroke="#555" stroke-width="3" stroke-linecap="round"/>
</svg>
