<svg xmlns="http://www.w3.org/2000/svg" viewBox="0 0 512 512">
  <rect width="512" height="512" fill="#131212"/>
  <!-- Grid-based T using pixel squares -->
  <rect x="116" y="96" width="40" height="40" fill="#E8E8E8"/>
  <rect x="156" y="96" width="40" height="40" fill="#E8E8E8"/>
  <rect x="196" y="96" width="40" height="40" fill="#E8E8E8"/>
  <rect x="236" y="96" width="40" height="40" fill="#E8E8E8"/>
  <rect x="276" y="96" width="40" height="40" fill="#E8E8E8"/>
  <rect x="316" y="96" width="40" height="40" fill="#E8E8E8"/>
  <rect x="356" y="96" width="40" height="40" fill="#E8E8E8"/>
  <!-- Vertical bar of T -->
  <rect x="236" y="136" width="40" height="40" fill="#E8E8E8"/>
  <rect x="236" y="176" width="40" height="40" fill="#E8E8E8"/>
  <rect x="236" y="216" width="40" height="40" fill="#E8E8E8"/>
  <rect x="236" y="256" width="40" height="40" fill="#E8E8E8"/>
  <rect x="236" y="296" width="40" height="40" fill="#E8E8E8"/>
  <rect x="236" y="336" width="40" height="40" fill="#E8E8E8"/>
  <rect x="236" y="376" width="40" height="40" fill="#E8E8E8"/>
  <!-- Circle accent bottom -->
  <circle cx="256" cy="416" r="28" fill="none" stroke="#E8E8E8" stroke-width="4"/>
</svg>
